# xmcd CD database file
#
# Track frame offsets:
#	150
#	12897
#	25312
#	40055
#	51545
#	62562
#	76237
#	87637
#	100637
#	111877
#	122962
#	133122
#	143842
#	157195
#	175762
#	188610
#	199885
#	208987
#	222080
#	237395
#
# Disc length: 3339 seconds
#
# Revision: 4
# Processed by: cddbd v1.4PL0 Copyright (c) Steve Scherf et al.
# Submitted via: CDex 1.51
#
DISCID=240d0914
DTITLE=Jimmy Reed - The Best of Jimmy Reed
DYEAR=1987
DGENRE=Blues
TTITLE0=High and Lonesome
TTITLE1=Boogie in the Dark
TTITLE2=You Don't Have to Go
TTITLE3=Take Out Some Insurance
TTITLE4=Ain't That Lovin' You Baby
TTITLE5=You Got Me Dizzy
TTITLE6=Down I Virginia
TTITLE7=Honest I Do
TTITLE8=Found Love
TTITLE9=Goin' to New York
TTITLE10=Baby What You Want Me to Do
TTITLE11=I Ain't Got You
TTITLE12=Big Boss Man
TTITLE13=Tell the World I Do
TTITLE14=Bright Lights, Big City
TTITLE15=Aw Shucks Hush Your Mouth
TTITLE16=Laughin' at the Blues
TTITLE17=Shame, Shame, Shame
TTITLE18=Baby What's Wrong
TTITLE19=I'm Goin' Upside Your Head
EXTD=YEAR: 1987
EXTT0=
EXTT1=
EXTT2=
EXTT3=
EXTT4=
EXTT5=
EXTT6=
EXTT7=
EXTT8=
EXTT9=
EXTT10=
EXTT11=
EXTT12=
EXTT13=
EXTT14=
EXTT15=
EXTT16=
EXTT17=
EXTT18=
EXTT19=
PLAYORDER=
